<mxfile host="app.diagrams.net" modified="2022-10-28T02:31:04.932Z" agent="5.0 (Macintosh; Intel Mac OS X 10_15_7) AppleWebKit/605.1.15 (KHTML, like Gecko) Version/15.6 Safari/605.1.15" etag="abzS-Drs4btOECA-zBFQ" version="20.5.1" type="github">
  <diagram id="B7WOcWY4sA6vwIcWDj-c" name="第 1 页">
    <mxGraphModel dx="702" dy="454" grid="1" gridSize="10" guides="1" tooltips="1" connect="1" arrows="1" fold="1" page="1" pageScale="1" pageWidth="827" pageHeight="1169" math="0" shadow="0">
      <root>
        <mxCell id="0" />
        <mxCell id="1" parent="0" />
        <mxCell id="HG6oFStxMR1ZmUWsopsF-3" value="" style="rounded=0;whiteSpace=wrap;html=1;" vertex="1" parent="1">
          <mxGeometry x="290" y="560" width="50" height="25" as="geometry" />
        </mxCell>
        <mxCell id="HG6oFStxMR1ZmUWsopsF-5" value="" style="rounded=0;whiteSpace=wrap;html=1;" vertex="1" parent="1">
          <mxGeometry x="340" y="560" width="50" height="25" as="geometry" />
        </mxCell>
        <mxCell id="HG6oFStxMR1ZmUWsopsF-6" value="" style="rounded=0;whiteSpace=wrap;html=1;" vertex="1" parent="1">
          <mxGeometry x="389" y="560" width="50" height="25" as="geometry" />
        </mxCell>
        <mxCell id="HG6oFStxMR1ZmUWsopsF-7" value="" style="rounded=0;whiteSpace=wrap;html=1;" vertex="1" parent="1">
          <mxGeometry x="500" y="560" width="50" height="25" as="geometry" />
        </mxCell>
      </root>
    </mxGraphModel>
  </diagram>
</mxfile>
